<svg width="196" height="81" viewBox="0 0 196 81" fill="none" xmlns="http://www.w3.org/2000/svg">
<path d="M53.6852 50.7883C59.5865 50.7883 64.3705 46.0044 64.3705 40.1031C64.3705 34.2018 59.5865 29.4178 53.6852 29.4178C47.7839 29.4178 43 34.2018 43 40.1031C43 46.0044 47.7839 50.7883 53.6852 50.7883Z" fill="#758C20"/>
<path d="M60.9777 26.688C61.2897 26.688 61.6017 26.571 61.8357 26.376C65.1894 23.5292 69.5181 21.8134 74.2368 21.8134C78.3705 21.8134 82.3092 23.1003 85.624 25.5571C87.3789 26.844 89.8357 26.844 91.4346 25.3231C93.4624 23.3733 93.2284 20.2145 91.0836 18.5766C86.2089 14.9499 80.3984 13 74.2368 13C64.9165 13 56.6491 17.6017 51.5794 24.6212C50.9555 25.4791 51.5794 26.727 52.6713 26.727H60.9777V26.688Z" fill="#758C20"/>
<path d="M112.727 31.5626C110.972 29.8858 108.164 29.9248 106.487 31.7186C105.591 32.6546 103.953 34.7214 101.067 38.3482C96.5822 43.9638 89.0947 53.3621 86.1699 55.7409C83.2841 58.0417 79.8914 60.1866 74.2758 60.1866C68.6992 60.1866 63.6685 57.7688 60.1588 53.947C59.8858 53.6741 59.5348 53.5181 59.1838 53.5181H51.4624C50.4485 53.5181 49.7855 54.649 50.3315 55.5069C55.2451 63.5794 64.1365 69 74.2368 69C82.6602 69 87.9638 65.5682 91.6685 62.6044C95.0613 59.8746 101.067 52.4651 107.93 43.8468C110.036 41.2339 112.181 38.5041 112.844 37.8412C114.56 36.0473 114.482 33.2395 112.727 31.5626Z" fill="#758C20"/>
<path d="M138.543 52.5821C144.444 52.5821 149.228 47.7982 149.228 41.8969C149.228 35.9956 144.444 31.2117 138.543 31.2117C132.642 31.2117 127.858 35.9956 127.858 41.8969C127.858 47.7982 132.642 52.5821 138.543 52.5821Z" fill="#40251E"/>
<path d="M131.251 55.273C130.939 55.273 130.627 55.39 130.393 55.585C127.039 58.4318 122.71 60.1477 117.992 60.1477C113.858 60.1477 109.919 58.8608 106.604 56.4039C104.85 55.117 102.393 55.117 100.794 56.6379C98.766 58.5878 99 61.7465 101.145 63.3844C106.019 67.0502 111.869 69 117.992 69C127.312 69 135.579 64.3984 140.688 57.3789C141.312 56.5209 140.688 55.273 139.596 55.273H131.251Z" fill="#40251E"/>
<path d="M79.5404 50.3983C81.2953 52.0752 84.1031 52.0362 85.78 50.2423C86.6769 49.3064 88.3148 47.2396 91.2006 43.6128C95.6853 37.9972 103.173 28.5989 106.098 26.2201C108.983 23.9192 112.376 21.7744 117.992 21.7744C123.568 21.7744 128.599 24.1922 132.109 28.0139C132.382 28.2869 132.733 28.4429 133.084 28.4429H140.766C141.78 28.4429 142.443 27.312 141.897 26.454C137.022 18.4206 128.131 13 117.992 13C109.568 13 104.265 16.4318 100.56 19.3955C97.1672 22.1253 91.1616 29.5348 84.2981 38.1532C82.1922 40.766 80.0474 43.4958 79.3844 44.1588C77.7075 45.9526 77.7855 48.7215 79.5404 50.3983Z" fill="#40251E"/>
<path d="M20.272 69.088C16.576 69.088 13.6453 68.7707 11.48 68.136C9.31467 67.5013 7.70933 66.6053 6.664 65.448C5.61867 64.328 4.928 63.0027 4.592 61.472C4.29333 59.904 4.144 58.224 4.144 56.432C4.144 53.4453 4.21867 50.0293 4.368 46.184C4.55467 42.3387 4.77867 38.2133 5.04 33.808C5.33867 29.3653 5.656 24.7733 5.992 20.032L16.184 21.04C15.8107 23.9147 15.4747 26.864 15.176 29.888C14.9147 32.8747 14.6907 35.7867 14.504 38.624C14.3173 41.4613 14.168 44.0373 14.056 46.352C13.944 48.6667 13.8507 50.608 13.776 52.176C13.7387 53.7067 13.72 54.696 13.72 55.144C13.72 56.4507 13.8693 57.44 14.168 58.112C14.4667 58.7467 15.064 59.176 15.96 59.4C16.856 59.624 18.1627 59.736 19.88 59.736C22.0453 59.736 24.4907 59.6053 27.216 59.344C29.9413 59.0453 32.704 58.616 35.504 58.056C38.304 57.496 40.8613 56.824 43.176 56.04L45.36 65.672C42.8213 66.3067 40.0773 66.8853 37.128 67.408C34.216 67.9307 31.304 68.3413 28.392 68.64C25.48 68.9387 22.7733 69.088 20.272 69.088Z" fill="#758C20"/>
<path d="M156.224 68.752C156.187 67.5573 156.168 66.344 156.168 65.112C156.168 63.9173 156.168 62.7227 156.168 61.528C156.168 56.04 156.28 50.72 156.504 45.568C156.728 40.3787 156.989 35.432 157.288 30.728C155.795 31.1013 154.544 31.456 153.536 31.792L151.352 22.832C153.181 22.272 155.104 21.7867 157.12 21.376C159.173 20.928 161.171 20.5733 163.112 20.312C165.091 20.0133 166.901 19.808 168.544 19.696C170.224 19.5467 171.605 19.472 172.688 19.472C173.845 19.472 175.264 19.5653 176.944 19.752C178.661 19.9387 180.416 20.3307 182.208 20.928C184.037 21.488 185.736 22.3467 187.304 23.504C188.872 24.6613 190.141 26.2293 191.112 28.208C192.12 30.1493 192.624 32.5947 192.624 35.544C192.624 38.6053 191.952 41.1627 190.608 43.216C189.264 45.232 187.491 46.856 185.288 48.088C183.085 49.2827 180.659 50.1413 178.008 50.664C175.357 51.1867 172.744 51.448 170.168 51.448C168.525 51.448 166.957 51.3733 165.464 51.224C165.427 53.016 165.408 54.7893 165.408 56.544C165.408 58.9333 165.427 61.1547 165.464 63.208C165.501 65.224 165.576 66.9973 165.688 68.528L156.224 68.752ZM172.408 28.656C171.437 28.656 170.429 28.6933 169.384 28.768C168.376 28.8427 167.368 28.936 166.36 29.048C166.173 31.0267 166.024 33.1733 165.912 35.488C165.8 37.8027 165.707 40.1733 165.632 42.6C167.013 42.712 168.451 42.768 169.944 42.768C178.904 42.768 183.384 40.1173 183.384 34.816C183.384 32.7253 182.488 31.176 180.696 30.168C178.904 29.16 176.141 28.656 172.408 28.656Z" fill="#758C20"/>
</svg>
